<?xml version="1.0" standalone="no"?>
<!DOCTYPE svg PUBLIC "-//W3C//DTD SVG 20010904//EN"
 "http://www.w3.org/TR/2001/REC-SVG-20010904/DTD/svg10.dtd">
<svg version="1.0" xmlns="http://www.w3.org/2000/svg"
 width="510.000000pt" height="510.000000pt" viewBox="0 0 510.000000 510.000000"
 preserveAspectRatio="xMidYMid meet">
<metadata>
Created by potrace 1.14, written by Peter Selinger 2001-2017
</metadata>
<g transform="translate(0.000000,510.000000) scale(0.100000,-0.100000)"
fill="#000000" stroke="none">
<path d="M2399 5096 c-2 -2 -40 -6 -85 -10 -271 -21 -589 -110 -859 -241 -757
-366 -1274 -1074 -1406 -1925 -33 -212 -33 -536 -1 -740 125 -782 538 -1403
1212 -1822 209 -130 556 -264 798 -308 31 -5 66 -12 77 -14 12 -2 48 -7 80
-11 33 -4 69 -10 80 -12 39 -9 421 -12 470 -4 28 5 79 12 115 15 219 23 505
108 747 222 497 234 918 643 1167 1133 113 223 210 503 242 701 46 282 55 563
23 780 -27 186 -28 187 -55 298 -215 877 -867 1567 -1729 1832 -105 32 -302
75 -395 85 -30 4 -68 9 -85 12 -35 6 -390 14 -396 9z"/>
</g>
</svg>
