<svg xmlns="http://www.w3.org/2000/svg" height="48" viewBox="0 96 960 960" width="48"><path d="M480 1001q-148.551 0-255.776-95.5Q117 810 102 665q-3-19 9.5-32.5t32.924-13.5Q162 619 176 631.5t17 33.5q17 106 97.983 175T480 909q121.254 0 205.627-84.582T770 619q0-122-82-206t-204-84h-23l43 41q11 12 10 26.5T503.647 419q-10.294 11-23.794 11T456 419L349 312q-7-5-10-13.5t-3-18q0-9.5 3.545-17.95Q343.091 254.1 350 248l106-107q11-10 24.5-10t24.5 10q9 10.739 8.5 24.87Q513 180 504 188l-49 49h24q79.544 0 149.772 30T750.5 348.5Q802 400 832 469.601q30 69.602 30 149 0 79.399-29.787 149.29-29.788 69.891-81.576 121.7Q698.85 941.4 628.987 971.2 559.125 1001 480 1001Z" fill="#FFF"/></svg>